<?xml version="1.0" encoding="UTF-8" standalone="no"?>
<svg
   height="69"
   viewBox="0 -0.11376601 1.4194498 1.4163467"
   width="69"
   version="1.1"
   id="svg4"
   sodipodi:docname="laravel-2.svg"
   inkscape:version="1.1.2 (0a00cf5339, 2022-02-04)"
   xmlns:inkscape="http://www.inkscape.org/namespaces/inkscape"
   xmlns:sodipodi="http://sodipodi.sourceforge.net/DTD/sodipodi-0.dtd"
   xmlns="http://www.w3.org/2000/svg"
   xmlns:svg="http://www.w3.org/2000/svg">
  <defs
     id="defs8" />
  <sodipodi:namedview
     id="namedview6"
     pagecolor="#ffffff"
     bordercolor="#666666"
     borderopacity="1.0"
     inkscape:pageshadow="2"
     inkscape:pageopacity="0.0"
     inkscape:pagecheckerboard="0"
     showgrid="false"
     width="69px"
     inkscape:zoom="11.594203"
     inkscape:cx="34.5"
     inkscape:cy="34.5"
     inkscape:window-width="1920"
     inkscape:window-height="1019"
     inkscape:window-x="0"
     inkscape:window-y="30"
     inkscape:window-maximized="1"
     inkscape:current-layer="svg4" />
  <rect
     style="fill:#ff2d20;stroke-width:0.139703;fill-opacity:1"
     id="rect847"
     width="1.400278"
     height="1.3948478"
     x="0.0095859142"
     y="-0.10301653"
     rx="0.082286961" />
  <path
     d="m 1.1959507,0.3200237 a 0.01586179,0.01586179 0 0 1 5.49e-4,0.004098 v 0.21512435 a 0.01568534,0.01568534 0 0 1 -0.00788,0.0136071 L 1.00806,0.65680741 v 0.20604645 c 0,0.005607 -0.00298,0.0107836 -0.00784,0.0136071 L 0.62331838,1.0934284 c -8.6269e-4,4.901e-4 -0.001804,8.038e-4 -0.002745,0.00114 -3.5292e-4,1.176e-4 -6.8624e-4,3.334e-4 -0.001059,4.313e-4 a 0.01578336,0.01578336 0 0 1 -0.008038,0 C 0.61104503,1.0948821 0.6106529,1.0946468 0.61024138,1.09449 0.60937868,1.0941762 0.60847738,1.0939017 0.60765338,1.09343 L 0.23083213,0.87646089 a 0.01570494,0.01570494 0 0 1 -0.007882,-0.013607 V 0.21748083 c 0,-0.001412 1.9607e-4,-0.002784 5.4899e-4,-0.004117 1.1764e-4,-4.5096e-4 3.9213e-4,-8.627e-4 5.4898e-4,-0.001314 2.941e-4,-8.2347e-4 5.686e-4,-0.001667 9.9995e-4,-0.002431 2.9409e-4,-5.0978e-4 7.2544e-4,-9.2126e-4 0.001078,-0.001392 4.5095e-4,-6.2742e-4 8.6269e-4,-0.001275 0.001392,-0.001824 4.5095e-4,-4.5096e-4 0.001039,-7.8427e-4 0.001549,-0.001176 5.686e-4,-4.7057e-4 0.001078,-9.8046e-4 0.001725,-0.001353 h 1.961e-5 L 0.41923259,0.09539012 a 0.01572454,0.01572454 0 0 1 0.0156853,0 L 0.62333796,0.2038738 h 3.922e-5 c 6.274e-4,3.9214e-4 0.001157,8.823e-4 0.001725,0.001333 5.0977e-4,3.9213e-4 0.001078,7.4505e-4 0.001529,0.001176 5.4898e-4,5.686e-4 9.4099e-4,0.001215 0.001412,0.001843 3.3331e-4,4.7056e-4 7.8427e-4,8.823e-4 0.001058,0.001392 4.5095e-4,7.8427e-4 7.0584e-4,0.001607 0.00102,0.002431 1.5686e-4,4.5095e-4 4.3135e-4,8.6269e-4 5.4899e-4,0.001333 a 0.01586179,0.01586179 0 0 1 5.4899e-4,0.004098 v 0.40309449 l 0.1570109,-0.0904063 v -0.2060661 c 0,-0.001372 1.9606e-4,-0.002765 5.4898e-4,-0.004078 1.3725e-4,-4.7056e-4 3.9213e-4,-8.8231e-4 5.4899e-4,-0.001333 3.137e-4,-8.2348e-4 5.882e-4,-0.001667 0.00102,-0.002431 2.941e-4,-5.0976e-4 7.2544e-4,-9.2125e-4 0.001058,-0.001392 4.7056e-4,-6.2741e-4 8.6269e-4,-0.001275 0.001412,-0.001824 4.5096e-4,-4.5096e-4 0.00102,-7.8427e-4 0.001529,-0.001176 5.8819e-4,-4.7055e-4 0.001098,-9.8046e-4 0.001725,-0.001353 h 1.961e-5 L 0.984532,0.20203078 a 0.01570494,0.01570494 0 0 1 0.0156853,0 l 0.1884201,0.10848368 c 6.666e-4,3.9214e-4 0.00118,8.8231e-4 0.00177,0.001333 4.902e-4,3.9213e-4 0.00106,7.4506e-4 0.00151,0.001176 5.49e-4,5.6859e-4 9.419e-4,0.001215 0.00141,0.001843 3.529e-4,4.7057e-4 7.842e-4,8.8231e-4 0.00106,0.001392 4.51e-4,7.6466e-4 7.059e-4,0.001607 0.00102,0.002431 1.764e-4,4.5095e-4 4.314e-4,8.627e-4 5.49e-4,0.001333 z M 1.1650898,0.53016795 V 0.35127672 l -0.065937,0.0379585 -0.091093,0.0524478 v 0.1788912 L 1.1651094,0.53016795 Z M 0.97666973,0.85377598 V 0.67476712 l -0.0896025,0.0511734 -0.255867,0.14603044 V 1.0526661 Z M 0.25436013,0.24463606 V 0.85377598 L 0.59979038,1.0526465 V 0.87199057 l -0.18045976,-0.10213112 -5.882e-5,-3.922e-5 -7.843e-5,-3.921e-5 c -6.078e-4,-3.5292e-4 -0.001118,-8.6269e-4 -0.001686,-0.001294 -4.9016e-4,-3.9213e-4 -0.001059,-7.0583e-4 -0.00149,-0.001137 l -3.921e-5,-5.882e-5 c -5.0978e-4,-4.9017e-4 -8.627e-4,-0.001098 -0.001294,-0.001647 -3.9214e-4,-5.2938e-4 -8.6269e-4,-9.8046e-4 -0.001176,-0.001529 l -1.961e-5,-5.881e-5 c -3.5292e-4,-5.8821e-4 -5.686e-4,-0.001294 -8.2348e-4,-0.001961 -2.5488e-4,-5.8819e-4 -5.882e-4,-0.001137 -7.4505e-4,-0.001764 v -1.96e-5 c -1.9608e-4,-7.4506e-4 -2.3528e-4,-0.001529 -3.1371e-4,-0.002294 -7.843e-5,-5.8819e-4 -2.3528e-4,-0.001176 -2.3528e-4,-0.001764 V 0.3350424 L 0.32029735,0.28257496 0.25436013,0.24465567 Z M 0.42709486,0.1271137 0.27010428,0.21748083 0.42705564,0.30784796 0.58402662,0.21746122 0.42705564,0.1271137 Z m 0.0816422,0.56396616 0.091073,-0.0524282 v -0.3940156 l -0.0659372,0.0379586 -0.0910926,0.0524478 v 0.39401552 z m 0.4836376,-0.4573255 -0.15697097,0.0903671 0.15697097,0.0903671 0.15695144,-0.0903867 z m -0.0157049,0.2079287 -0.0910926,-0.0524478 -0.0659372,-0.0379585 v 0.17889123 l 0.091073,0.0524282 0.0659568,0.0379781 z M 0.61547571,0.84481574 0.8457168,0.71337264 0.96080794,0.64769034 0.8039546,0.55738204 0.6233576,0.66135619 0.45875963,0.75611519 Z"
     fill="#ff2d20"
     id="path2"
     style="stroke-width:0.0196067;fill:#ffffff" />
</svg>
